<svg xmlns="http://www.w3.org/2000/svg" version="1.1"
  xmlns:xlink="http://www.w3.org/1999/xlink" width="2000" height="1500" preserveAspectRatio="none" viewBox="0 0 2000 1500">
  <g mask="url(&quot;#SvgjsMask1047&quot;)" fill="none">
    <path d="M1237 553L1236 1397" stroke-width="6" stroke="url(&quot;#SvgjsLinearGradient1048&quot;)" stroke-linecap="round" class="Up"></path>
    <path d="M77 842L76 113" stroke-width="6" stroke="url(&quot;#SvgjsLinearGradient1049&quot;)" stroke-linecap="round" class="Down"></path>
    <path d="M631 353L630 1139" stroke-width="8" stroke="url(&quot;#SvgjsLinearGradient1048&quot;)" stroke-linecap="round" class="Up"></path>
    <path d="M1385 56L1384 -842" stroke-width="8" stroke="url(&quot;#SvgjsLinearGradient1048&quot;)" stroke-linecap="round" class="Up"></path>
    <path d="M1136 1368L1135 342" stroke-width="10" stroke="url(&quot;#SvgjsLinearGradient1049&quot;)" stroke-linecap="round" class="Down"></path>
    <path d="M1498 23L1497 -729" stroke-width="8" stroke="url(&quot;#SvgjsLinearGradient1048&quot;)" stroke-linecap="round" class="Up"></path>
    <path d="M1265 418L1264 1004" stroke-width="10" stroke="url(&quot;#SvgjsLinearGradient1048&quot;)" stroke-linecap="round" class="Up"></path>
    <path d="M1545 1082L1544 -28" stroke-width="8" stroke="url(&quot;#SvgjsLinearGradient1049&quot;)" stroke-linecap="round" class="Down"></path>
    <path d="M1341 410L1340 -39" stroke-width="10" stroke="url(&quot;#SvgjsLinearGradient1048&quot;)" stroke-linecap="round" class="Up"></path>
    <path d="M872 580L871 1575" stroke-width="6" stroke="url(&quot;#SvgjsLinearGradient1048&quot;)" stroke-linecap="round" class="Up"></path>
    <path d="M529 248L528 -305" stroke-width="8" stroke="url(&quot;#SvgjsLinearGradient1049&quot;)" stroke-linecap="round" class="Down"></path>
    <path d="M1507 454L1506 1014" stroke-width="10" stroke="url(&quot;#SvgjsLinearGradient1048&quot;)" stroke-linecap="round" class="Up"></path>
    <path d="M55 408L54 1273" stroke-width="8" stroke="url(&quot;#SvgjsLinearGradient1049&quot;)" stroke-linecap="round" class="Down"></path>
    <path d="M999 497L998 -545" stroke-width="8" stroke="url(&quot;#SvgjsLinearGradient1049&quot;)" stroke-linecap="round" class="Down"></path>
    <path d="M822 738L821 -99" stroke-width="10" stroke="url(&quot;#SvgjsLinearGradient1048&quot;)" stroke-linecap="round" class="Up"></path>
    <path d="M1607 1273L1606 1970" stroke-width="6" stroke="url(&quot;#SvgjsLinearGradient1049&quot;)" stroke-linecap="round" class="Down"></path>
    <path d="M455 47L454 535" stroke-width="6" stroke="url(&quot;#SvgjsLinearGradient1049&quot;)" stroke-linecap="round" class="Down"></path>
    <path d="M136 146L135 -279" stroke-width="8" stroke="url(&quot;#SvgjsLinearGradient1049&quot;)" stroke-linecap="round" class="Down"></path>
    <path d="M799 478L798 1124" stroke-width="8" stroke="url(&quot;#SvgjsLinearGradient1048&quot;)" stroke-linecap="round" class="Up"></path>
    <path d="M1372 1408L1371 877" stroke-width="6" stroke="url(&quot;#SvgjsLinearGradient1048&quot;)" stroke-linecap="round" class="Up"></path>
    <path d="M949 1363L948 2435" stroke-width="8" stroke="url(&quot;#SvgjsLinearGradient1049&quot;)" stroke-linecap="round" class="Down"></path>
    <path d="M790 488L789 -100" stroke-width="6" stroke="url(&quot;#SvgjsLinearGradient1048&quot;)" stroke-linecap="round" class="Up"></path>
    <path d="M1085 1449L1084 2154" stroke-width="6" stroke="url(&quot;#SvgjsLinearGradient1049&quot;)" stroke-linecap="round" class="Down"></path>
    <path d="M1340 700L1339 1677" stroke-width="8" stroke="url(&quot;#SvgjsLinearGradient1048&quot;)" stroke-linecap="round" class="Up"></path>
    <path d="M1505 1367L1504 833" stroke-width="10" stroke="url(&quot;#SvgjsLinearGradient1049&quot;)" stroke-linecap="round" class="Down"></path>
    <path d="M1786 1006L1785 1641" stroke-width="6" stroke="url(&quot;#SvgjsLinearGradient1049&quot;)" stroke-linecap="round" class="Down"></path>
    <path d="M814 95L813 -1007" stroke-width="8" stroke="url(&quot;#SvgjsLinearGradient1049&quot;)" stroke-linecap="round" class="Down"></path>
    <path d="M171 675L170 -262" stroke-width="8" stroke="url(&quot;#SvgjsLinearGradient1049&quot;)" stroke-linecap="round" class="Down"></path>
    <path d="M1537 55L1536 803" stroke-width="6" stroke="url(&quot;#SvgjsLinearGradient1049&quot;)" stroke-linecap="round" class="Down"></path>
    <path d="M1711 166L1710 1279" stroke-width="6" stroke="url(&quot;#SvgjsLinearGradient1048&quot;)" stroke-linecap="round" class="Up"></path>
    <path d="M1428 27L1427 -841" stroke-width="10" stroke="url(&quot;#SvgjsLinearGradient1048&quot;)" stroke-linecap="round" class="Up"></path>
    <path d="M159 1482L158 2407" stroke-width="6" stroke="url(&quot;#SvgjsLinearGradient1049&quot;)" stroke-linecap="round" class="Down"></path>
    <path d="M1580 1442L1579 513" stroke-width="8" stroke="url(&quot;#SvgjsLinearGradient1049&quot;)" stroke-linecap="round" class="Down"></path>
    <path d="M1406 356L1405 -368" stroke-width="10" stroke="url(&quot;#SvgjsLinearGradient1048&quot;)" stroke-linecap="round" class="Up"></path>
    <path d="M1243 1017L1242 1460" stroke-width="8" stroke="url(&quot;#SvgjsLinearGradient1048&quot;)" stroke-linecap="round" class="Up"></path>
    <path d="M1302 108L1301 -366" stroke-width="10" stroke="url(&quot;#SvgjsLinearGradient1049&quot;)" stroke-linecap="round" class="Down"></path>
    <path d="M1661 495L1660 -166" stroke-width="8" stroke="url(&quot;#SvgjsLinearGradient1049&quot;)" stroke-linecap="round" class="Down"></path>
    <path d="M116 1077L115 1475" stroke-width="8" stroke="url(&quot;#SvgjsLinearGradient1048&quot;)" stroke-linecap="round" class="Up"></path>
    <path d="M1173 1276L1172 451" stroke-width="8" stroke="url(&quot;#SvgjsLinearGradient1048&quot;)" stroke-linecap="round" class="Up"></path>
    <path d="M1632 886L1631 1328" stroke-width="10" stroke="url(&quot;#SvgjsLinearGradient1049&quot;)" stroke-linecap="round" class="Down"></path>
    <path d="M1705 362L1704 1099" stroke-width="10" stroke="url(&quot;#SvgjsLinearGradient1049&quot;)" stroke-linecap="round" class="Down"></path>
    <path d="M1406 1464L1405 808" stroke-width="6" stroke="url(&quot;#SvgjsLinearGradient1049&quot;)" stroke-linecap="round" class="Down"></path>
    <path d="M844 418L843 1438" stroke-width="6" stroke="url(&quot;#SvgjsLinearGradient1048&quot;)" stroke-linecap="round" class="Up"></path>
    <path d="M1530 626L1529 205" stroke-width="8" stroke="url(&quot;#SvgjsLinearGradient1048&quot;)" stroke-linecap="round" class="Up"></path>
    <path d="M1556 181L1555 -793" stroke-width="6" stroke="url(&quot;#SvgjsLinearGradient1048&quot;)" stroke-linecap="round" class="Up"></path>
    <path d="M871 1417L870 724" stroke-width="6" stroke="url(&quot;#SvgjsLinearGradient1048&quot;)" stroke-linecap="round" class="Up"></path>
    <path d="M1602 380L1601 1290" stroke-width="6" stroke="url(&quot;#SvgjsLinearGradient1049&quot;)" stroke-linecap="round" class="Down"></path>
    <path d="M59 797L58 322" stroke-width="8" stroke="url(&quot;#SvgjsLinearGradient1049&quot;)" stroke-linecap="round" class="Down"></path>
    <path d="M1450 981L1449 1689" stroke-width="10" stroke="url(&quot;#SvgjsLinearGradient1048&quot;)" stroke-linecap="round" class="Up"></path>
    <path d="M834 1219L833 633" stroke-width="8" stroke="url(&quot;#SvgjsLinearGradient1048&quot;)" stroke-linecap="round" class="Up"></path>
  </g>
  <defs>
    <mask id="SvgjsMask1047">
      <rect width="2000" height="1500" fill="#ffffff"></rect>
    </mask>
    <linearGradient x1="0%" y1="100%" x2="0%" y2="0%" id="SvgjsLinearGradient1048">
      <stop stop-color="rgba(220, 121, 240, 0)" offset="0"></stop>
      <stop stop-color="rgba(220, 121, 240, 0.3)" offset="1"></stop>
    </linearGradient>
    <linearGradient x1="0%" y1="0%" x2="0%" y2="100%" id="SvgjsLinearGradient1049">
      <stop stop-color="rgba(220, 121, 240, 0)" offset="0"></stop>
      <stop stop-color="rgba(220, 121, 240, 0.3)" offset="1"></stop>
    </linearGradient>
  </defs>
</svg>
