<svg xmlns="http://www.w3.org/2000/svg" version="1.1"
  xmlns:xlink="http://www.w3.org/1999/xlink"
  xmlns:svgjs="http://svgjs.dev/svgjs" width="1440" height="560" preserveAspectRatio="none" viewBox="0 0 1440 560">
  <g fill="none">
    <g transform="translate(0, 0)" stroke-linecap="round">
      <path d="M260 129.54 L260 430.46" stroke-width="15" stroke="rgba(220, 121, 240, 1)"></path>
      <path d="M280 139.79 L280 420.21" stroke-width="15" stroke="rgba(220, 121, 240, 1)"></path>
      <path d="M300 133.97 L300 426.02" stroke-width="15" stroke="rgba(236, 34, 65, 1)"></path>
      <path d="M320 241.91 L320 318.09" stroke-width="15" stroke="rgba(220, 121, 240, 1)"></path>
      <path d="M340 181.25 L340 378.75" stroke-width="15" stroke="rgba(236, 34, 65, 1)"></path>
      <path d="M360 146.47 L360 413.52" stroke-width="15" stroke="rgba(236, 34, 65, 1)"></path>
      <path d="M380 182.67 L380 377.33" stroke-width="15" stroke="rgba(220, 121, 240, 1)"></path>
      <path d="M400 127.79 L400 432.21" stroke-width="15" stroke="rgba(236, 34, 65, 1)"></path>
      <path d="M420 177.78 L420 382.23" stroke-width="15" stroke="rgba(220, 121, 240, 1)"></path>
      <path d="M440 131.26 L440 428.74" stroke-width="15" stroke="rgba(220, 121, 240, 1)"></path>
      <path d="M460 112.93 L460 447.07" stroke-width="15" stroke="rgba(220, 121, 240, 1)"></path>
      <path d="M480 162.24 L480 397.76" stroke-width="15" stroke="rgba(236, 34, 65, 1)"></path>
      <path d="M500 108.47 L500 451.53" stroke-width="15" stroke="rgba(236, 34, 65, 1)"></path>
      <path d="M520 249.06 L520 310.94" stroke-width="15" stroke="rgba(236, 34, 65, 1)"></path>
      <path d="M540 253.31 L540 306.69" stroke-width="15" stroke="rgba(220, 121, 240, 1)"></path>
      <path d="M560 182.44 L560 377.56" stroke-width="15" stroke="rgba(220, 121, 240, 1)"></path>
      <path d="M580 189.25 L580 370.75" stroke-width="15" stroke="rgba(236, 34, 65, 1)"></path>
      <path d="M600 150.92 L600 409.08" stroke-width="15" stroke="rgba(236, 34, 65, 1)"></path>
      <path d="M620 159.09 L620 400.91" stroke-width="15" stroke="rgba(236, 34, 65, 1)"></path>
      <path d="M640 125.75 L640 434.25" stroke-width="15" stroke="rgba(220, 121, 240, 1)"></path>
      <path d="M660 250.87 L660 309.13" stroke-width="15" stroke="rgba(236, 34, 65, 1)"></path>
      <path d="M680 152.58 L680 407.42" stroke-width="15" stroke="rgba(236, 34, 65, 1)"></path>
      <path d="M700 200.83 L700 359.17" stroke-width="15" stroke="rgba(220, 121, 240, 1)"></path>
      <path d="M720 137.03 L720 422.97" stroke-width="15" stroke="rgba(220, 121, 240, 1)"></path>
      <path d="M740 228.84 L740 331.17" stroke-width="15" stroke="rgba(236, 34, 65, 1)"></path>
      <path d="M760 261.5 L760 298.5" stroke-width="15" stroke="rgba(236, 34, 65, 1)"></path>
      <path d="M780 127.47 L780 432.53" stroke-width="15" stroke="rgba(236, 34, 65, 1)"></path>
      <path d="M800 234.29 L800 325.71" stroke-width="15" stroke="rgba(236, 34, 65, 1)"></path>
      <path d="M820 171.36 L820 388.64" stroke-width="15" stroke="rgba(220, 121, 240, 1)"></path>
      <path d="M840 174.3 L840 385.7" stroke-width="15" stroke="rgba(236, 34, 65, 1)"></path>
      <path d="M860 252.19 L860 307.81" stroke-width="15" stroke="rgba(220, 121, 240, 1)"></path>
      <path d="M880 224.09 L880 335.91" stroke-width="15" stroke="rgba(236, 34, 65, 1)"></path>
      <path d="M900 231.82 L900 328.18" stroke-width="15" stroke="rgba(220, 121, 240, 1)"></path>
      <path d="M920 253.31 L920 306.69" stroke-width="15" stroke="rgba(236, 34, 65, 1)"></path>
      <path d="M940 251.38 L940 308.63" stroke-width="15" stroke="rgba(220, 121, 240, 1)"></path>
      <path d="M960 110.22 L960 449.78" stroke-width="15" stroke="rgba(236, 34, 65, 1)"></path>
      <path d="M980 190.92 L980 369.08" stroke-width="15" stroke="rgba(236, 34, 65, 1)"></path>
      <path d="M1000 175.2 L1000 384.8" stroke-width="15" stroke="rgba(236, 34, 65, 1)"></path>
      <path d="M1020 225.9 L1020 334.11" stroke-width="15" stroke="rgba(220, 121, 240, 1)"></path>
      <path d="M1040 253.2 L1040 306.8" stroke-width="15" stroke="rgba(220, 121, 240, 1)"></path>
      <path d="M1060 230.73 L1060 329.27" stroke-width="15" stroke="rgba(220, 121, 240, 1)"></path>
      <path d="M1080 196.84 L1080 363.15" stroke-width="15" stroke="rgba(236, 34, 65, 1)"></path>
      <path d="M1100 166.3 L1100 393.7" stroke-width="15" stroke="rgba(220, 121, 240, 1)"></path>
      <path d="M1120 126.71 L1120 433.29" stroke-width="15" stroke="rgba(236, 34, 65, 1)"></path>
      <path d="M1140 162.56 L1140 397.44" stroke-width="15" stroke="rgba(220, 121, 240, 1)"></path>
      <path d="M1160 175.26 L1160 384.74" stroke-width="15" stroke="rgba(236, 34, 65, 1)"></path>
      <path d="M1180 171.09 L1180 388.91" stroke-width="15" stroke="rgba(220, 121, 240, 1)"></path>
    </g>
  </g>
  <defs>
    <mask id="SvgjsMask1110">
      <rect width="1440" height="560" fill="#ffffff"></rect>
    </mask>
  </defs>
</svg>
